<?xml version="1.0" encoding="UTF-8"?>
<svg id="Layer_1" data-name="Layer 1" xmlns="http://www.w3.org/2000/svg" viewBox="0 0 1020.27 1011.98">
  <defs>
    <style>
      .cls-1 {
        fill: #869da2;
      }

      .cls-2 {
        fill: #879ea3;
      }

      .cls-3 {
        fill: #879ea4;
      }

      .cls-4 {
        fill: #879ca3;
      }

      .cls-5 {
        fill: #869ca2;
      }

      .cls-6 {
        fill: #fefefe;
      }

      .cls-7 {
        fill: #859ca2;
      }
    </style>
  </defs>
  <rect class="cls-6" width="1020.27" height="1011.98"/>
  <path class="cls-5" d="M463.31,516.36c.46,1.81.89,3.48,1.05,5.38,3.38,42.5-.96,92.24-1.09,135.36-.06,19.32,2.87,39.83,1.09,59.24-.45,4.94-2.08,8.64-7.49,9.37l-107.67-.02c-3.36.47-8.45-4.66-8.45-7.43v-201.9h122.55Z"/>
  <path class="cls-1" d="M679.52,516.36v203.88c0,2.3-6.85,5.24-9.42,5.48-33.83,3.09-72.37-2.45-106.71,0-1.6.8-6.42-4.09-6.42-4.49v-204.86h122.55Z"/>
  <path class="cls-5" d="M481.93,416.83l54.66-.24c2.52,0,4.94,2.05,5.4,4.52l.08,298.19c.04,2.54-3.09,5.88-5.55,6.34-15.81-1.65-36.55,2.31-51.73-.04-3.46-.54-5.94-3.02-6.48-6.42l-.11-295.19c-.18-2.43,1.19-6.41,3.73-7.17Z"/>
  <path class="cls-2" d="M463.31,502.53h-138c-.79,0-6.4-6.34-5.5-8.37,1.96-22.16-2.54-48.49,0-70.14.57-4.88,3.57-7.49,8.44-7.43,41.4,2.91,87.82-3.7,128.62,0,6.3.57,6.95,2.37,7.47,8.4,1.61,18.96,1.41,52.06,0,71.16-.16,2.21-.89,4.2-1.04,6.38Z"/>
  <path class="cls-3" d="M556.96,502.53v-83.43c0-1.59,4.98-2.38,6.43-2.51,40.79-3.71,87.24,2.91,128.62,0,3.88-.16,8.22,2.4,8.47,6.41-2.32,22.42,2.91,50.44,0,72.17-.33,2.47-4.51,7.35-6.53,7.35h-137Z"/>
  <path class="cls-4" d="M598.59,285.6c56.3-6.34,72.3,55.52,31.12,90.08-31.15,26.14-75.52,29.03-114.66,26.73-2.15-1.47.71-16.4,1.35-19.54,7.66-37.5,40.03-92.52,82.18-97.27Z"/>
  <path class="cls-7" d="M406.27,285.58c51.37-6.88,88.67,54.56,97.61,97.26.67,3.18,3.85,17.86,1.33,19.56-41.73,3.19-97.69-2.66-125.58-37.63-22.95-28.77-12.23-73.99,26.64-79.2Z"/>
  <path class="cls-6" d="M596.61,311.29c27.7-2.74,40.71,19.77,26.52,43.06-18.19,29.87-67.42,45.17-101.1,42.08-1.26-.72.4-5.78.77-7.23,7.48-29.74,40.89-74.65,73.81-77.91Z"/>
  <path class="cls-6" d="M499.17,396.89c-34.25,2.81-92.89-14.89-105.39-50.07-7.61-21.41,5.98-37.16,28.21-35.85,36.14,2.13,71.69,53.01,77.17,85.92Z"/>
</svg>